<?xml version="1.0" encoding="UTF-8"?>
<svg width="1200" height="800" viewBox="0 0 1200 800" fill="none" xmlns="http://www.w3.org/2000/svg">
  <!-- Background -->
  <rect width="1200" height="800" fill="#0F172A"/>
  
  <!-- Header -->
  <rect width="1200" height="64" fill="#020617"/>
  <rect x="0" y="63" width="1200" height="1" fill="#6366F1" fill-opacity="0.2"/>
  <text x="32" y="42" fill="white" font-family="Arial" font-weight="bold" font-size="24">TASKFLOW</text>
  <rect x="1100" y="16" width="32" height="32" rx="16" fill="#6366F1"/>
  <text x="1108" y="38" fill="white" font-family="Arial" font-weight="bold" font-size="16">U</text>

  <!-- Title Area -->
  <text x="32" y="120" fill="white" font-family="Arial" font-weight="bold" font-size="32">Operations Console</text>
  
  <!-- Action Buttons -->
  <rect x="1000" y="96" width="168" height="40" rx="8" fill="#6366F1"/>
  <text x="1024" y="122" fill="white" font-family="Arial" font-weight="bold" font-size="14">NEW TASK</text>
  <rect x="824" y="96" width="160" height="40" rx="8" fill="none" stroke="#6366F1" stroke-opacity="0.5"/>
  <text x="864" y="122" fill="#6366F1" font-family="Arial" font-weight="bold" font-size="14">EXPORT CSV</text>

  <!-- Filters -->
  <rect x="32" y="160" width="1136" height="60" rx="8" fill="#1E293B" fill-opacity="0.5" stroke="#6366F1" stroke-opacity="0.1"/>
  <text x="56" y="195" fill="#94A3B8" font-family="Arial" font-size="14">Search tasks...</text>
  <line x1="1000" y1="170" x2="1000" y2="210" stroke="#334155"/>
  <text x="1020" y="195" fill="white" font-family="Arial" font-weight="bold" font-size="14">All Statuses</text>

  <!-- Table Header -->
  <rect x="32" y="240" width="1136" height="48" rx="8" fill="#1E293B"/>
  <text x="56" y="270" fill="#94A3B8" font-family="Arial" font-weight="bold" font-size="12">TASK ID</text>
  <text x="140" y="270" fill="#94A3B8" font-family="Arial" font-weight="bold" font-size="12">TITLE & DESCRIPTION</text>
  <text x="560" y="270" fill="#94A3B8" font-family="Arial" font-weight="bold" font-size="12">STATUS</text>
  <text x="700" y="270" fill="#94A3B8" font-family="Arial" font-weight="bold" font-size="12">PRIORITY</text>
  <text x="840" y="270" fill="#94A3B8" font-family="Arial" font-weight="bold" font-size="12">DUE DATE</text>
  <text x="1000" y="270" fill="#94A3B8" font-family="Arial" font-weight="bold" font-size="12">MODIFIED BY</text>

  <!-- Row 1 -->
  <rect x="32" y="300" width="1136" height="64" rx="4" fill="#1E293B" fill-opacity="0.4"/>
  <text x="56" y="338" fill="#6366F1" font-family="Arial" font-size="12">#TSK-892</text>
  <text x="140" y="328" fill="white" font-family="Arial" font-weight="bold" font-size="14">Deploy Backend API v2</text>
  <text x="140" y="348" fill="#94A3B8" font-family="Arial" font-size="12">Refactor key auth endpoints for better performance</text>
  
  <rect x="560" y="324" width="80" height="24" rx="12" fill="#3B82F6" fill-opacity="0.2"/>
  <text x="576" y="340" fill="#3B82F6" font-family="Arial" font-weight="bold" font-size="10">RUNNING</text>
  
  <rect x="700" y="324" width="60" height="24" rx="12" fill="#EF4444" fill-opacity="0.2"/>
  <text x="714" y="340" fill="#EF4444" font-family="Arial" font-weight="bold" font-size="10">HIGH</text>
  
  <text x="840" y="338" fill="#94A3B8" font-family="Arial" font-size="12">2026-02-18</text>
  <text x="1000" y="338" fill="#94A3B8" font-family="Arial" font-size="12">admin_user (Now)</text>

  <!-- Row 2 -->
  <rect x="32" y="380" width="1136" height="64" rx="4" fill="#1E293B" fill-opacity="0.4"/>
  <text x="56" y="418" fill="#6366F1" font-family="Arial" font-size="12">#TSK-893</text>
  <text x="140" y="408" fill="white" font-family="Arial" font-weight="bold" font-size="14">Update Database Schema</text>
  <text x="140" y="428" fill="#94A3B8" font-family="Arial" font-size="12">Add auditing columns to user table</text>
  
  <rect x="560" y="404" width="90" height="24" rx="12" fill="#10B981" fill-opacity="0.2"/>
  <text x="572" y="420" fill="#10B981" font-family="Arial" font-weight="bold" font-size="10">COMPLETED</text>
  
  <rect x="700" y="404" width="70" height="24" rx="12" fill="#F59E0B" fill-opacity="0.2"/>
  <text x="710" y="420" fill="#F59E0B" font-family="Arial" font-weight="bold" font-size="10">MEDIUM</text>
  
  <text x="840" y="418" fill="#94A3B8" font-family="Arial" font-size="12">2026-02-15</text>
  <text x="1000" y="418" fill="#94A3B8" font-family="Arial" font-size="12">system_bot (1h ago)</text>

  <!-- Row 3 -->
  <rect x="32" y="460" width="1136" height="64" rx="4" fill="#1E293B" fill-opacity="0.4"/>
  <text x="56" y="498" fill="#6366F1" font-family="Arial" font-size="12">#TSK-894</text>
  <text x="140" y="488" fill="white" font-family="Arial" font-weight="bold" font-size="14">Security Audit Level 1</text>
  <text x="140" y="508" fill="#94A3B8" font-family="Arial" font-size="12">Initial penetration testing report review</text>
  
  <rect x="560" y="484" width="80" height="24" rx="12" fill="#A855F7" fill-opacity="0.2"/>
  <text x="580" y="500" fill="#A855F7" font-family="Arial" font-weight="bold" font-size="10">REVIEW</text>
  
  <rect x="700" y="484" width="60" height="24" rx="12" fill="#EF4444" fill-opacity="0.2"/>
  <text x="714" y="500" fill="#EF4444" font-family="Arial" font-weight="bold" font-size="10">HIGH</text>
  
  <text x="840" y="498" fill="#EF4444" font-family="Arial" font-weight="bold" font-size="12">OVERDUE</text>
  <text x="1000" y="498" fill="#94A3B8" font-family="Arial" font-size="12">admin_user (2d ago)</text>

  <!-- Row 4 -->
  <rect x="32" y="540" width="1136" height="64" rx="4" fill="#1E293B" fill-opacity="0.4"/>
  <text x="56" y="578" fill="#6366F1" font-family="Arial" font-size="12">#TSK-895</text>
  <text x="140" y="568" fill="white" font-family="Arial" font-weight="bold" font-size="14">Frontend Unit Tests</text>
  <text x="140" y="588" fill="#94A3B8" font-family="Arial" font-size="12">Coverage for new component library</text>
  
  <rect x="560" y="564" width="80" height="24" rx="12" fill="#94A3B8" fill-opacity="0.2"/>
  <text x="584" y="580" fill="#94A3B8" font-family="Arial" font-weight="bold" font-size="10">OPEN</text>
  
  <rect x="700" y="564" width="60" height="24" rx="12" fill="#3B82F6" fill-opacity="0.2"/>
  <text x="716" y="580" fill="#3B82F6" font-family="Arial" font-weight="bold" font-size="10">LOW</text>
  
  <text x="840" y="578" fill="#94A3B8" font-family="Arial" font-size="12">2026-02-20</text>
  <text x="1000" y="578" fill="#94A3B8" font-family="Arial" font-size="12">dev_lead (3h ago)</text>

</svg>
